# xmcd
# 
# Track frame offsets:
#     151
#     8409
#     16800
#     25681
#     37195
#     46780
#     58024
#     70713
#     89970
#     103119
#     112905
#     127769
#     145250
#     156366
#     173945
#     186704
#     197970
#     208213
#     221456
#     241070
# 
# Disc length: 3412
# 
# Revision: 2
# Processed by: cddbd v1.5.2PL0 Copyright (c) Steve Scherf et al.
# Submitted via: BonkEnc v1.0.8
# 
DISCID=1b0d5214
DTITLE=Various Artist - BRAZIL 2CD [CD1)
DYEAR=2006
DGENRE=Latin
TTITLE0=Vinicius de Moraes and Quarteto Em Cy - Soneto de amor Total-Samba en Preludio 
TTITLE1=Maria Creuza - Chega de saudade
TTITLE2=Joao Gilberto - O Sapo
TTITLE3=Toquinho with Mutinho - Meu Panama
TTITLE4=Ceatano Veloso - Samba en Paz
TTITLE5=Jorge Ben - Amor de Carnaval
TTITLE6=Maria Creuza - Corcovado
TTITLE7=Baden Powell - Canto de Ossanha
TTITLE8=Antonio Carlos Jobim and Miucha - Samba do Aviao
TTITLE9=Toquinho - Berimbau
TTITLE10=Maria Bethania - Anos dourado
TTITLE11=Benito di Paula - Mulher Brasileira
TTITLE12=Maria Creuza - Mas que nada
TTITLE13=Wando - Na baixa do Sapateiro (Bahia)
TTITLE14=Chico Buarque - Cantando no Toro
TTITLE15=Quarteto Em Cy - Agua de Beber
TTITLE16=Octavio Enrique 'Black Out' - Tristeza
TTITLE17=Gilberto Gil - Roda
TTITLE18=Benito di Paula - Charlie Brown
TTITLE19=Astrud Gilberto - The Girl From Ipanema
EXTD=
EXTT0=
EXTT1=
EXTT2=
EXTT3=
EXTT4=
EXTT5=
EXTT6=
EXTT7=
EXTT8=
EXTT9=
EXTT10=
EXTT11=
EXTT12=
EXTT13=
EXTT14=
EXTT15=
EXTT16=
EXTT17=
EXTT18=
EXTT19=
PLAYORDER=
